<mxfile host="app.diagrams.net" modified="2024-06-16T13:39:19.250Z" agent="Mozilla/5.0 (Macintosh; Intel Mac OS X 10_15_7) AppleWebKit/537.36 (KHTML, like Gecko) Chrome/125.0.0.0 Safari/537.36 Edg/125.0.0.0" etag="5Vs-GFHwam6E7wEP97Es" version="24.5.4" type="github">
  <diagram name="Page-1" id="ADkXKBwfeDoaxuX5Rr1g">
    <mxGraphModel dx="1247" dy="747" grid="1" gridSize="10" guides="1" tooltips="1" connect="1" arrows="1" fold="1" page="1" pageScale="1" pageWidth="1169" pageHeight="827" math="0" shadow="0">
      <root>
        <mxCell id="0" />
        <mxCell id="1" parent="0" />
        <mxCell id="pDruWIuyvUxlKhOgC-xd-1" value="&lt;font style=&quot;font-size: 18px;&quot;&gt;ABZ&lt;/font&gt;" style="ellipse;whiteSpace=wrap;html=1;" vertex="1" parent="1">
          <mxGeometry x="730" y="100" width="70" height="60" as="geometry" />
        </mxCell>
        <mxCell id="pDruWIuyvUxlKhOgC-xd-2" value="&lt;font style=&quot;font-size: 18px;&quot;&gt;EDI&lt;/font&gt;" style="ellipse;whiteSpace=wrap;html=1;" vertex="1" parent="1">
          <mxGeometry x="610" y="130" width="70" height="60" as="geometry" />
        </mxCell>
        <mxCell id="pDruWIuyvUxlKhOgC-xd-3" value="&lt;font style=&quot;font-size: 18px;&quot;&gt;BOS&lt;/font&gt;" style="ellipse;whiteSpace=wrap;html=1;" vertex="1" parent="1">
          <mxGeometry x="420" y="160" width="140" height="90" as="geometry" />
        </mxCell>
        <mxCell id="pDruWIuyvUxlKhOgC-xd-4" value="&lt;font style=&quot;font-size: 18px;&quot;&gt;DFW&lt;/font&gt;" style="ellipse;whiteSpace=wrap;html=1;" vertex="1" parent="1">
          <mxGeometry x="200" y="240" width="70" height="60" as="geometry" />
        </mxCell>
        <mxCell id="pDruWIuyvUxlKhOgC-xd-5" value="&lt;font style=&quot;font-size: 18px;&quot;&gt;ROS&lt;/font&gt;" style="ellipse;whiteSpace=wrap;html=1;" vertex="1" parent="1">
          <mxGeometry x="40" y="330" width="70" height="60" as="geometry" />
        </mxCell>
        <mxCell id="pDruWIuyvUxlKhOgC-xd-6" value="&lt;span style=&quot;font-size: 18px;&quot;&gt;Providence&lt;/span&gt;" style="ellipse;whiteSpace=wrap;html=1;" vertex="1" parent="1">
          <mxGeometry x="400" y="40" width="100" height="60" as="geometry" />
        </mxCell>
        <mxCell id="pDruWIuyvUxlKhOgC-xd-27" style="edgeStyle=orthogonalEdgeStyle;rounded=0;orthogonalLoop=1;jettySize=auto;html=1;exitX=0.5;exitY=1;exitDx=0;exitDy=0;entryX=0.5;entryY=0;entryDx=0;entryDy=0;" edge="1" parent="1" source="pDruWIuyvUxlKhOgC-xd-9" target="pDruWIuyvUxlKhOgC-xd-10">
          <mxGeometry relative="1" as="geometry">
            <mxPoint x="420" y="390" as="targetPoint" />
          </mxGeometry>
        </mxCell>
        <mxCell id="pDruWIuyvUxlKhOgC-xd-9" value="&lt;span style=&quot;font-size: 18px;&quot;&gt;Portland&lt;/span&gt;" style="ellipse;whiteSpace=wrap;html=1;" vertex="1" parent="1">
          <mxGeometry x="385" y="340" width="80" height="40" as="geometry" />
        </mxCell>
        <mxCell id="pDruWIuyvUxlKhOgC-xd-10" value="&lt;span style=&quot;font-size: 18px;&quot;&gt;Bar Harbor&lt;/span&gt;" style="ellipse;whiteSpace=wrap;html=1;" vertex="1" parent="1">
          <mxGeometry x="380" y="432.5" width="90" height="50" as="geometry" />
        </mxCell>
        <mxCell id="pDruWIuyvUxlKhOgC-xd-11" value="&lt;span style=&quot;font-size: 18px;&quot;&gt;Gorham&lt;/span&gt;" style="ellipse;whiteSpace=wrap;html=1;" vertex="1" parent="1">
          <mxGeometry x="459" y="520" width="91" height="40" as="geometry" />
        </mxCell>
        <mxCell id="pDruWIuyvUxlKhOgC-xd-30" style="edgeStyle=orthogonalEdgeStyle;rounded=0;orthogonalLoop=1;jettySize=auto;html=1;entryX=0.5;entryY=1;entryDx=0;entryDy=0;" edge="1" parent="1" source="pDruWIuyvUxlKhOgC-xd-12" target="pDruWIuyvUxlKhOgC-xd-14">
          <mxGeometry relative="1" as="geometry" />
        </mxCell>
        <mxCell id="pDruWIuyvUxlKhOgC-xd-12" value="&lt;span style=&quot;font-size: 18px;&quot;&gt;Manchester&lt;/span&gt;" style="ellipse;whiteSpace=wrap;html=1;" vertex="1" parent="1">
          <mxGeometry x="540" y="435" width="127.5" height="45" as="geometry" />
        </mxCell>
        <mxCell id="pDruWIuyvUxlKhOgC-xd-14" value="&lt;span style=&quot;font-size: 18px;&quot;&gt;New Haven&lt;/span&gt;" style="ellipse;whiteSpace=wrap;html=1;" vertex="1" parent="1">
          <mxGeometry x="540" y="340" width="127.5" height="40" as="geometry" />
        </mxCell>
        <mxCell id="pDruWIuyvUxlKhOgC-xd-15" value="" style="curved=1;endArrow=classic;html=1;rounded=0;entryX=0;entryY=1;entryDx=0;entryDy=0;" edge="1" parent="1" source="pDruWIuyvUxlKhOgC-xd-2" target="pDruWIuyvUxlKhOgC-xd-1">
          <mxGeometry width="50" height="50" relative="1" as="geometry">
            <mxPoint x="720" y="280" as="sourcePoint" />
            <mxPoint x="770" y="230" as="targetPoint" />
            <Array as="points">
              <mxPoint x="710" y="180" />
            </Array>
          </mxGeometry>
        </mxCell>
        <mxCell id="pDruWIuyvUxlKhOgC-xd-21" value="" style="curved=1;endArrow=classic;html=1;rounded=0;exitX=0;exitY=1;exitDx=0;exitDy=0;entryX=0.5;entryY=0;entryDx=0;entryDy=0;" edge="1" parent="1" source="pDruWIuyvUxlKhOgC-xd-3" target="pDruWIuyvUxlKhOgC-xd-9">
          <mxGeometry width="50" height="50" relative="1" as="geometry">
            <mxPoint x="400" y="410" as="sourcePoint" />
            <mxPoint x="450" y="360" as="targetPoint" />
            <Array as="points">
              <mxPoint x="380" y="260" />
            </Array>
          </mxGeometry>
        </mxCell>
        <mxCell id="pDruWIuyvUxlKhOgC-xd-22" value="" style="curved=1;endArrow=classic;html=1;rounded=0;exitX=0;exitY=0;exitDx=0;exitDy=0;entryX=1;entryY=0;entryDx=0;entryDy=0;" edge="1" parent="1" source="pDruWIuyvUxlKhOgC-xd-1" target="pDruWIuyvUxlKhOgC-xd-2">
          <mxGeometry width="50" height="50" relative="1" as="geometry">
            <mxPoint x="720" y="300" as="sourcePoint" />
            <mxPoint x="770" y="250" as="targetPoint" />
            <Array as="points">
              <mxPoint x="720" y="109" />
              <mxPoint x="690" y="120" />
            </Array>
          </mxGeometry>
        </mxCell>
        <mxCell id="pDruWIuyvUxlKhOgC-xd-23" value="" style="curved=1;endArrow=classic;html=1;rounded=0;entryX=0.771;entryY=0.1;entryDx=0;entryDy=0;exitX=0;exitY=0;exitDx=0;exitDy=0;entryPerimeter=0;" edge="1" parent="1" source="pDruWIuyvUxlKhOgC-xd-2" target="pDruWIuyvUxlKhOgC-xd-3">
          <mxGeometry width="50" height="50" relative="1" as="geometry">
            <mxPoint x="620" y="120" as="sourcePoint" />
            <mxPoint x="530" y="170" as="targetPoint" />
            <Array as="points">
              <mxPoint x="580" y="140" />
              <mxPoint x="550" y="151" />
            </Array>
          </mxGeometry>
        </mxCell>
        <mxCell id="pDruWIuyvUxlKhOgC-xd-25" value="" style="curved=1;endArrow=classic;html=1;rounded=0;entryX=0;entryY=1;entryDx=0;entryDy=0;" edge="1" parent="1" target="pDruWIuyvUxlKhOgC-xd-2">
          <mxGeometry width="50" height="50" relative="1" as="geometry">
            <mxPoint x="560" y="209" as="sourcePoint" />
            <mxPoint x="622" y="190" as="targetPoint" />
            <Array as="points">
              <mxPoint x="592" y="219" />
            </Array>
          </mxGeometry>
        </mxCell>
        <mxCell id="pDruWIuyvUxlKhOgC-xd-33" value="" style="curved=1;endArrow=classic;html=1;rounded=0;exitX=0.5;exitY=0;exitDx=0;exitDy=0;entryX=1;entryY=1;entryDx=0;entryDy=0;" edge="1" parent="1" source="pDruWIuyvUxlKhOgC-xd-14" target="pDruWIuyvUxlKhOgC-xd-3">
          <mxGeometry width="50" height="50" relative="1" as="geometry">
            <mxPoint x="451" y="247" as="sourcePoint" />
            <mxPoint x="384" y="340" as="targetPoint" />
            <Array as="points">
              <mxPoint x="640" y="260" />
            </Array>
          </mxGeometry>
        </mxCell>
        <mxCell id="pDruWIuyvUxlKhOgC-xd-34" value="" style="curved=1;endArrow=classic;html=1;rounded=0;exitX=0.5;exitY=1;exitDx=0;exitDy=0;entryX=0;entryY=0.5;entryDx=0;entryDy=0;" edge="1" parent="1" source="pDruWIuyvUxlKhOgC-xd-10" target="pDruWIuyvUxlKhOgC-xd-11">
          <mxGeometry width="50" height="50" relative="1" as="geometry">
            <mxPoint x="451" y="247" as="sourcePoint" />
            <mxPoint x="384" y="340" as="targetPoint" />
            <Array as="points">
              <mxPoint x="420" y="530" />
            </Array>
          </mxGeometry>
        </mxCell>
        <mxCell id="pDruWIuyvUxlKhOgC-xd-35" value="" style="curved=1;endArrow=classic;html=1;rounded=0;exitX=1;exitY=0.5;exitDx=0;exitDy=0;entryX=0.5;entryY=1;entryDx=0;entryDy=0;" edge="1" parent="1" source="pDruWIuyvUxlKhOgC-xd-11" target="pDruWIuyvUxlKhOgC-xd-12">
          <mxGeometry width="50" height="50" relative="1" as="geometry">
            <mxPoint x="580" y="500" as="sourcePoint" />
            <mxPoint x="640" y="480" as="targetPoint" />
            <Array as="points">
              <mxPoint x="580" y="540" />
              <mxPoint x="610" y="510" />
            </Array>
          </mxGeometry>
        </mxCell>
        <mxCell id="pDruWIuyvUxlKhOgC-xd-38" value="" style="curved=1;endArrow=classic;html=1;rounded=0;exitX=0;exitY=0;exitDx=0;exitDy=0;" edge="1" parent="1" source="pDruWIuyvUxlKhOgC-xd-3" target="pDruWIuyvUxlKhOgC-xd-4">
          <mxGeometry width="50" height="50" relative="1" as="geometry">
            <mxPoint x="407.5" y="160" as="sourcePoint" />
            <mxPoint x="340.5" y="253" as="targetPoint" />
            <Array as="points">
              <mxPoint x="330" y="140" />
            </Array>
          </mxGeometry>
        </mxCell>
        <mxCell id="pDruWIuyvUxlKhOgC-xd-39" value="" style="curved=1;endArrow=classic;html=1;rounded=0;exitX=0;exitY=0.5;exitDx=0;exitDy=0;entryX=1;entryY=0;entryDx=0;entryDy=0;" edge="1" parent="1" source="pDruWIuyvUxlKhOgC-xd-4" target="pDruWIuyvUxlKhOgC-xd-5">
          <mxGeometry width="50" height="50" relative="1" as="geometry">
            <mxPoint x="200" y="253" as="sourcePoint" />
            <mxPoint x="20" y="330" as="targetPoint" />
            <Array as="points">
              <mxPoint x="130" y="290" />
            </Array>
          </mxGeometry>
        </mxCell>
        <mxCell id="pDruWIuyvUxlKhOgC-xd-40" value="" style="curved=1;endArrow=classic;html=1;rounded=0;entryX=0.414;entryY=1.033;entryDx=0;entryDy=0;entryPerimeter=0;exitX=1;exitY=0.5;exitDx=0;exitDy=0;" edge="1" parent="1" source="pDruWIuyvUxlKhOgC-xd-5" target="pDruWIuyvUxlKhOgC-xd-4">
          <mxGeometry width="50" height="50" relative="1" as="geometry">
            <mxPoint x="100" y="380" as="sourcePoint" />
            <mxPoint x="162" y="361" as="targetPoint" />
            <Array as="points">
              <mxPoint x="150" y="360" />
            </Array>
          </mxGeometry>
        </mxCell>
        <mxCell id="pDruWIuyvUxlKhOgC-xd-41" value="" style="curved=1;endArrow=classic;html=1;rounded=0;entryX=0;entryY=0.5;entryDx=0;entryDy=0;exitX=1;exitY=0.5;exitDx=0;exitDy=0;" edge="1" parent="1" target="pDruWIuyvUxlKhOgC-xd-3">
          <mxGeometry width="50" height="50" relative="1" as="geometry">
            <mxPoint x="270" y="278" as="sourcePoint" />
            <mxPoint x="389" y="220" as="targetPoint" />
            <Array as="points">
              <mxPoint x="360" y="300" />
            </Array>
          </mxGeometry>
        </mxCell>
        <mxCell id="pDruWIuyvUxlKhOgC-xd-45" value="" style="curved=1;endArrow=classic;html=1;rounded=0;" edge="1" parent="1" source="pDruWIuyvUxlKhOgC-xd-6" target="pDruWIuyvUxlKhOgC-xd-3">
          <mxGeometry width="50" height="50" relative="1" as="geometry">
            <mxPoint x="425" y="134.5" as="sourcePoint" />
            <mxPoint x="487" y="115.5" as="targetPoint" />
            <Array as="points">
              <mxPoint x="430" y="130" />
            </Array>
          </mxGeometry>
        </mxCell>
        <mxCell id="pDruWIuyvUxlKhOgC-xd-47" value="" style="curved=1;endArrow=classic;html=1;rounded=0;entryX=1;entryY=1;entryDx=0;entryDy=0;exitX=0.5;exitY=0;exitDx=0;exitDy=0;" edge="1" parent="1" source="pDruWIuyvUxlKhOgC-xd-3" target="pDruWIuyvUxlKhOgC-xd-6">
          <mxGeometry width="50" height="50" relative="1" as="geometry">
            <mxPoint x="500" y="169" as="sourcePoint" />
            <mxPoint x="550" y="140" as="targetPoint" />
            <Array as="points">
              <mxPoint x="530" y="140" />
            </Array>
          </mxGeometry>
        </mxCell>
      </root>
    </mxGraphModel>
  </diagram>
</mxfile>
